#!OML:ASF X:\für Bonn\!DataBase\2005_08_11_Bastian_Final\c3d\Bastian.ASF
:FULLY-SPECIFIED
:DEGREES
33
root 2.37109 22.5173 -12.0069 717.248 -4.23327 -4.18603
lowerback 2.03264 -0.94733 1.19293
upperback 4.18436 -1.25957 -0.372276
thorax 3.12564 -0.58786 -1.05952
lowerneck -21.027 -3.88775 -8.00341
upperneck 4.36086 -4.12509 9.91655
head 5.056 -1.4764 4.02615
rclavicle -1.2921e-014 1.03368e-014
rhumerus -55.7784 24.8419 -87.1044
rradius 117.802
rwrist 3.45748
rhand -9.26044 24.4037
rfingers 7.12502
rthumb 16.6957 -4.89827
lclavicle -1.2921e-014 1.03368e-014
lhumerus -42.2104 -18.754 70.3164
lradius 119.537
lwrist -143.955
lhand -31.4485 7.80224
lfingers 7.12502
lthumb -4.71625 37.7297
rfemur -11.0494 -1.70345 26.759
rtibia 65.5524
rfoot -0.198553 -28.8616
rtoes 48.0771
lfemur -13.4311 9.71546 -16.1675
ltibia 63.6574
lfoot 22.585 -20.6888
ltoes -36.5545
34
root 2.37374 22.6777 -11.8888 716.835 -4.3974 -4.22093
lowerback 3.50601 -0.878163 1.19469
upperback 4.70452 -1.15155 -0.414515
thorax 2.83957 -0.533509 -1.08386
lowerneck -20.9509 -3.98281 -8.38234
upperneck 3.85206 -4.13944 10.0531
head 4.8974 -1.48829 4.12921
rclavicle 3.47873e-015 1.74931e-014
rhumerus -55.8804 24.5314 -87.4175
rradius 117.047
rwrist 3.85644
rhand -9.33205 24.1943
rfingers 7.12502
rthumb 16.6268 -5.11356
lclavicle 3.47873e-015 1.74931e-014
lhumerus -43.6299 -17.9208 71.0645
lradius 119.291
lwrist -144.336
lhand -30.673 8.40218
lfingers 7.12502
lthumb -3.96734 38.345
rfemur -12.354 -1.52073 26.7138
rtibia 67.0442
rfoot 1.22892 -27.311
rtoes 45.8532
lfemur -14.3305 10.3928 -16.0601
ltibia 65.2424
lfoot 21.7406 -20.1711
ltoes -37.5041
35
root 2.37576 22.8266 -11.7723 716.45 -4.52775 -4.26433
lowerback 4.98445 -0.807467 1.18449
upperback 5.16844 -1.04218 -0.439897
thorax 2.49737 -0.479674 -1.08759
lowerneck -20.7713 -4.10726 -8.79619
upperneck 3.36818 -4.19386 10.1829
head 4.73575 -1.52252 4.23196
rclavicle -3.38928e-014 -6.36111e-015
rhumerus -56.014 24.1889 -87.6612
rradius 116.187
rwrist 4.21198
rhand -9.25478 23.8956
rfingers 7.12502
rthumb 16.7012 -5.40598
lclavicle -3.38928e-014 -6.36111e-015
lhumerus -44.8603 -17.0475 71.8731
lradius 118.755
lwrist -144.779
lhand -30.1975 8.61288
lfingers 7.12502
lthumb -3.50823 38.5638
rfemur -13.6284 -1.1556 26.7532
rtibia 68.116
rfoot 3.07465 -25.1202
rtoes 43.7807
lfemur -15.256 11.0896 -15.9826
ltibia 66.7481
lfoot 20.5677 -19.3151
ltoes -38.7392
36
root 2.377 22.9566 -11.6576 716.09 -4.64997 -4.3008
lowerback 6.42655 -0.75825 1.13188
upperback 5.59628 -0.964276 -0.461687
thorax 2.14293 -0.44314 -1.06682
lowerneck -20.5107 -4.20712 -9.15468
upperneck 2.87773 -4.23424 10.2767
head 4.55704 -1.55283 4.31613
rclavicle -5.1684e-015 6.36111e-015
rhumerus -56.1249 23.8616 -87.9223
rradius 115.313
rwrist 4.4161
rhand -8.94133 23.3774
rfingers 7.12502
rthumb 17.0029 -5.89846
lclavicle -5.1684e-015 6.36111e-015
lhumerus -45.8845 -16.0635 72.6775
lradius 118.005
lwrist -145.268
lhand -29.8893 8.07171
lfingers 7.12502
lthumb -3.21054 38.0273
rfemur -14.7805 -0.604128 26.8389
rtibia 68.7757
rfoot 5.20736 -22.0686
rtoes 42.1197
lfemur -16.1784 11.7755 -15.9499
ltibia 68.1321
lfoot 19.3381 -17.9912
ltoes -39.7084
37
root 2.3768 23.0715 -11.5436 715.785 -4.75013 -4.33648
lowerback 7.80121 -0.699588 1.05978
upperback 6.00421 -0.877408 -0.484706
thorax 1.81104 -0.402532 -1.04066
lowerneck -20.4023 -4.32488 -9.51807
upperneck 2.51241 -4.29916 10.4171
head 4.4451 -1.58654 4.41367
rclavicle -6.95746e-015 -2.38542e-015
rhumerus -56.0404 23.4201 -88.1166
rradius 114.43
rwrist 4.46444
rhand -8.23938 22.6423
rfingers 7.12502
rthumb 17.6785 -6.57403
lclavicle -6.95746e-015 -2.38542e-015
lhumerus -46.5342 -15.0834 73.4287
lradius 116.886
lwrist -146.052
lhand -29.4992 8.03205
lfingers 7.12502
lthumb -2.83384 37.993
rfemur -15.8635 0.0650237 26.9531
rtibia 69.0744
rfoot 7.21257 -18.2906
rtoes 40.2083
lfemur -17.1411 12.3609 -15.9633
ltibia 69.3715
lfoot 18.0493 -16.1065
ltoes -40.0195
38
root 2.37619 23.1854 -11.4267 715.514 -4.82775 -4.32232
lowerback 9.12962 -0.632888 0.920834
upperback 6.38213 -0.787185 -0.52042
thorax 1.47956 -0.362094 -0.993789
lowerneck -20.2033 -4.43339 -9.84178
upperneck 2.00301 -4.36033 10.5491
head 4.27408 -1.62127 4.50291
rclavicle 1.80894e-014 6.36111e-015
rhumerus -55.7883 23.0019 -88.3482
rradius 113.078
rwrist 5.0182
rhand -8.17079 22.3016
rfingers 7.12502
rthumb 17.7445 -6.9088
lclavicle 1.80894e-014 6.36111e-015
lhumerus -47.0177 -14.1179 74.0525
lradius 115.667
lwrist -146.927
lhand -29.134 8.11942
lfingers 7.12502
lthumb -2.48108 38.0847
rfemur -16.8835 0.790664 27.0164
rtibia 69.028
rfoot 8.79592 -14.3446
rtoes 38.3561
lfemur -18.0662 12.8468 -16.0448
ltibia 70.421
lfoot 16.6982 -13.7248
ltoes -39.5659
39
root 2.37501 23.2977 -11.3055 715.281 -4.88496 -4.25449
lowerback 10.3903 -0.552344 0.711695
upperback 6.73699 -0.689015 -0.56842
thorax 1.16724 -0.319448 -0.924553
lowerneck -20.0425 -4.54745 -10.1088
upperneck 1.58762 -4.44459 10.6558
head 4.13901 -1.66619 4.57267
rclavicle 1.23246e-014 -4.77083e-015
rhumerus -55.3526 22.5999 -88.6363
rradius 111.283
rwrist 5.30375
rhand -8.43625 22.4403
rfingers 7.12502
rthumb 17.489 -6.79295
lclavicle 1.23246e-014 -4.77083e-015
lhumerus -47.4377 -13.2664 74.5593
lradius 114.318
lwrist -147.785
lhand -28.9018 8.04137
lfingers 7.12502
lthumb -2.25684 38.0092
rfemur -17.8207 1.53013 27.0182
rtibia 68.6901
rfoot 9.55071 -11.1105
rtoes 37.4639
lfemur -18.9606 13.2007 -16.2174
ltibia 71.2771
lfoot 15.197 -11.1426
ltoes -38.8794
40
root 2.37334 23.4073 -11.1805 715.092 -4.93373 -4.2436
lowerback 11.5724 -0.472045 0.558156
upperback 7.06251 -0.592088 -0.597994
thorax 0.871676 -0.275973 -0.870954
lowerneck -19.7796 -4.65302 -10.3813
upperneck 1.12101 -4.5231 10.7573
head 3.97291 -1.71138 4.64313
rclavicle -1.94809e-014 -6.36111e-015
rhumerus -54.8295 22.2226 -88.9143
rradius 108.934
rwrist 5.84581
rhand -9.5085 23.4462
rfingers 7.12502
rthumb 16.4569 -5.87577
lclavicle -1.94809e-014 -6.36111e-015
lhumerus -47.828 -12.3929 74.9835
lradius 112.981
lwrist -148.716
lhand -28.8223 7.51023
lfingers 7.12502
lthumb -2.18012 37.4788
rfemur -18.6424 2.23994 27.0763
rtibia 68.0922
rfoot 9.65 -8.81343
rtoes 37.0568
lfemur -19.832 13.4692 -16.3523
ltibia 71.9524
lfoot 13.6186 -8.6003
ltoes -38.3805
41
root 2.3705 23.5093 -11.0532 714.969 -4.96439 -4.19809
lowerback 12.6592 -0.367667 0.386927
upperback 7.35941 -0.46979 -0.662811
thorax 0.602626 -0.219446 -0.850334
lowerneck -19.5005 -4.76064 -10.6049
upperneck 0.692195 -4.62269 10.8748
head 3.8187 -1.76565 4.70924
rclavicle 1.07344e-014 -1.74931e-014
rhumerus -54.1988 21.7445 -89.1788
rradius 106.476
rwrist 6.47124
rhand -10.7366 24.5053
rfingers 7.12502
rthumb 15.2742 -4.91077
lclavicle 1.07344e-014 -1.74931e-014
lhumerus -48.0582 -11.6151 75.3107
lradius 111.565
lwrist -149.697
lhand -28.7509 6.88603
lfingers 7.12502
lthumb -2.11113 36.8553
rfemur -19.3886 2.96345 27.0915
rtibia 67.3119
rfoot 9.16811 -7.4732
rtoes 35.7818
lfemur -20.7314 13.5561 -16.5862
ltibia 72.4754
lfoot 12.2853 -6.17726
ltoes -37.7186
42
root 2.36659 23.6032 -10.9229 714.843 -5.00646 -4.17337
lowerback 13.734 -0.254123 0.190556
upperback 7.62596 -0.342635 -0.690365
thorax 0.31297 -0.16207 -0.780793
lowerneck -19.2159 -4.84803 -10.8627
upperneck 0.371365 -4.69652 10.998
head 3.69569 -1.8067 4.7857
rclavicle 1.19271e-015 7.95139e-016
rhumerus -53.5267 21.2658 -89.4239
rradius 103.924
rwrist 6.85056
rhand -11.4708 25.1836
rfingers 7.12502
rthumb 14.5669 -4.28487
lclavicle 1.19271e-015 7.95139e-016
lhumerus -48.1465 -10.8359 75.6592
lradius 109.744
lwrist -150.613
lhand -28.5962 6.77673
lfingers 7.12502
lthumb -1.9617 36.7475
rfemur -20.0087 3.6012 27.1307
rtibia 66.3924
rfoot 8.6133 -6.72893
rtoes 34.4621
lfemur -21.5483 13.5091 -16.7991
ltibia 72.8376
lfoot 11.1591 -4.16392
ltoes -37.0856
43
root 2.36174 23.689 -10.7898 714.678 -5.01617 -4.14991
lowerback 14.854 -0.127115 0.00347394
upperback 7.85987 -0.202183 -0.740944
thorax -0.0304692 -0.0972531 -0.745693
lowerneck -18.8539 -4.91389 -11.0078
upperneck 0.060751 -4.7749 11.0907
head 3.56176 -1.85313 4.83436
rclavicle -2.08724e-014 1.74931e-014
rhumerus -52.8813 20.7277 -89.6904
rradius 101.337
rwrist 6.81474
rhand -12.1024 25.8489
rfingers 7.12502
rthumb 13.9583 -3.66251
lclavicle -2.08724e-014 1.74931e-014
lhumerus -48.1326 -10.1259 75.9228
lradius 107.785
lwrist -151.579
lhand -28.4709 6.67662
lfingers 7.12502
lthumb -1.84076 36.6484
rfemur -20.515 4.09487 27.182
rtibia 65.412
rfoot 7.86921 -6.57972
rtoes 33.1861
lfemur -22.269 13.4179 -16.977
ltibia 73.0262
lfoot 10.2149 -2.61071
ltoes -36.5591
44
root 2.35568 23.7647 -10.6535 714.475 -4.98876 -4.16221
lowerback 16.0081 0.00209312 -0.11812
upperback 8.0756 -0.056199 -0.830377
thorax -0.406051 -0.0268357 -0.793276
lowerneck -18.4682 -4.95967 -10.9859
upperneck -0.215001 -4.86677 11.1536
head 3.43213 -1.90779 4.84547
rclavicle 3.18055e-015 1.51076e-014
rhumerus -52.1896 20.0187 -90.0223
rradius 98.7797
rwrist 6.70853
rhand -12.2763 25.7525
rfingers 7.12502
rthumb 13.7908 -3.77043
lclavicle 3.18055e-015 1.51076e-014
lhumerus -47.7641 -9.42836 76.0722
lradius 105.704
lwrist -152.472
lhand -28.3793 6.51957
lfingers 7.12502
lthumb -1.75228 36.4921
rfemur -20.9306 4.38005 27.284
rtibia 64.4367
rfoot 7.19341 -7.07224
rtoes 32.3575
lfemur -22.8648 13.2942 -17.0651
ltibia 72.9793
lfoot 9.56182 -1.4511
ltoes -36.2197
